<?xml version="1.0" encoding="utf-8"?>
<!DOCTYPE svg PUBLIC "-//W3C//DTD SVG 1.0//EN" "http://www.w3.org/TR/2001/REC-SVG-20010904/DTD/svg10.dtd">
<svg version="1.0" xmlns="http://www.w3.org/2000/svg" width="512px" height="512px" viewBox="0 0 512 512" preserveAspectRatio="xMidYMid meet">
 <g fill="#16c60c">
  <path d="M11.4 504.6 c-1.8 -4.6 -1.9 -5.6 -0.7 -6 1 -0.4 1.9 0.6 3 3.4 0.9 2.2 1.9 4 2.2 4 0.3 0 1.6 -2.7 2.8 -6 1.7 -4.9 1.9 -6 0.7 -6 -0.8 0 -1.4 -0.3 -1.4 -0.8 0 -0.6 6.2 -8.7 8.6 -11.1 0.2 -0.2 0.4 3.1 0.4 7.4 0 6.9 -0.2 7.6 -1.6 6.5 -1.3 -1.1 -1.6 -1 -2 0.6 -0.3 1 -1.6 4.4 -2.8 7.4 -1.7 4.3 -2.7 5.6 -4.7 5.8 -2.1 0.2 -2.7 -0.5 -4.5 -5.2z"/>
  <path d="M7.4 494.9 c-0.7 -1.2 1.5 -3.1 2.8 -2.3 0.4 0.3 0.8 1.2 0.8 2 0 1.7 -2.6 1.9 -3.6 0.3z"/>
  <path d="M242.5 491.7 c-3.8 -1.9 -12.2 -7.4 -18.5 -12.1 -20.7 -15.5 -26.4 -17.1 -51.2 -14.2 -25.7 3 -33.7 1.8 -41.8 -6.3 -4.8 -4.8 -8.3 -11.3 -16.9 -31.1 -7.8 -18 -13.4 -23 -36.8 -33.1 -31.1 -13.4 -34.7 -19.9 -30.8 -54.9 2.9 -26.1 1.6 -31 -14.8 -53.1 -12.9 -17.4 -14.2 -20.3 -14.2 -30.9 0 -10.6 1.3 -13.5 14.2 -30.9 16.2 -21.8 17.8 -27.6 14.9 -52.3 -3 -25.6 -1.7 -33.7 6.5 -41.9 4.6 -4.7 11.2 -8.3 30.9 -16.8 11.2 -4.8 18.1 -9.8 22.8 -16.4 1.9 -2.6 6.4 -11.6 10.1 -20 7.3 -16.5 11.3 -23.3 16.4 -27.1 3.8 -2.8 11.3 -5.5 13.8 -4.9 1.6 0.5 1.6 0.9 -0.5 6.4 -1.1 3.2 -2.4 5.9 -2.7 5.9 -0.3 0 -1.3 -1.8 -2.2 -4 -1.1 -2.8 -2 -3.8 -3 -3.4 -1.2 0.4 -1.1 1.4 0.7 6 1.8 4.7 2.4 5.4 4.5 5.2 2 -0.2 3 -1.5 4.7 -5.8 1.2 -3 2.5 -6.4 2.8 -7.4 0.4 -1.6 0.7 -1.7 2 -0.6 1.4 1.1 1.6 0.9 1.6 -1 0 -2.2 0.3 -2.3 5.8 -1.7 27.4 2.9 30.3 3.1 36 1.9 8.1 -1.7 14 -4.9 28.3 -15.5 17.4 -12.9 20.3 -14.2 30.9 -14.2 10.6 0 14.3 1.8 31.5 14.6 20.4 15.2 26.1 17.1 45.7 15 29.5 -3.1 37.1 -2.6 44.7 2.9 5.7 4.2 9.6 10.5 17.1 27.5 3.6 8.3 8 17.1 9.7 19.6 l3.1 4.4 -2.9 3.5 c-3.2 3.8 -3.6 5 -1.5 5 1.2 0 1 1.1 -0.7 6 -1.2 3.3 -2.5 6 -2.8 6 -0.3 0 -1.3 -1.8 -2.2 -4 -1.1 -2.8 -2 -3.8 -3 -3.4 -1.2 0.4 -1.1 1.4 0.7 6 1.8 4.7 2.4 5.4 4.5 5.2 2 -0.2 3 -1.5 4.7 -5.8 1.2 -3 2.5 -6.4 2.8 -7.4 0.4 -1.6 0.8 -1.7 2 -0.7 1.3 1.1 1.5 0.6 1.8 -2.8 l0.3 -4.1 4 2.7 c2.2 1.5 10.8 5.7 19.1 9.3 16.9 7.5 23.2 11.4 27.4 17.1 5.5 7.6 6 15.2 2.9 44.6 -2.1 20 -0.5 24.8 15.1 45.8 12.8 17.2 14.5 21 14.5 31.5 0 10.5 -1.7 14.3 -14.5 31.5 -15.9 21.3 -17.2 25.5 -14.9 47.2 0.8 7.6 1.4 18.5 1.4 24.3 0 9 -0.3 11.2 -2.4 15.3 -3.2 6.5 -11.2 12.6 -23.1 17.8 -29.2 12.6 -33.7 16.2 -41.6 32.5 -2.6 5.4 -5.1 10.1 -5.6 10.2 -0.4 0.2 -0.6 0.8 -0.2 1.3 1.1 1.8 -7.5 17.7 -12.3 22.6 -8.3 8.5 -16.3 9.7 -42.1 6.7 -24.9 -2.9 -30.4 -1.4 -51.7 14.5 -16.1 12 -21 14.4 -30.5 14.9 -6.9 0.3 -8.1 0 -14.5 -3.1z m152.5 -61.1 c0 -0.8 -0.4 -1.7 -0.8 -2 -1.3 -0.8 -3.5 1.1 -2.8 2.3 1 1.6 3.6 1.4 3.6 -0.3z m-2.4 -4.7 c0.3 -0.6 0.2 -1.5 -0.2 -1.9 -1.2 -1.2 -3.8 0.5 -3 1.9 0.9 1.4 2.3 1.4 3.2 0z m-2.3 -6.5 c-0.3 -0.8 -0.9 -1.4 -1.3 -1.4 -1.3 0 -2.2 1.9 -1.5 3 0.9 1.4 3.4 0 2.8 -1.6z m-241.7 -43.4 c1.2 -3 2.5 -6.4 2.8 -7.4 0.4 -1.6 0.7 -1.7 2 -0.6 1.4 1.1 1.6 0.4 1.6 -6.5 0 -4.3 -0.2 -7.6 -0.4 -7.4 -2.4 2.4 -8.6 10.5 -8.6 11.1 0 0.5 0.6 0.8 1.4 0.8 1.2 0 1 1.1 -0.7 6 -1.2 3.3 -2.5 6 -2.8 6 -0.3 0 -1.3 -1.8 -2.2 -4 -1.1 -2.8 -2 -3.8 -3 -3.4 -1.2 0.4 -1.1 1.4 0.7 6 1.8 4.7 2.4 5.4 4.5 5.2 2 -0.2 3 -1.5 4.7 -5.8z m-9.6 -9.4 c0 -0.8 -0.4 -1.7 -0.8 -2 -1.3 -0.8 -3.5 1.1 -2.8 2.3 1 1.6 3.6 1.4 3.6 -0.3z m-2.4 -4.7 c0.3 -0.6 0.2 -1.5 -0.2 -1.9 -1.2 -1.2 -3.8 0.5 -3 1.9 0.9 1.4 2.3 1.4 3.2 0z m-2.3 -6.5 c-0.3 -0.8 -0.9 -1.4 -1.3 -1.4 -1.3 0 -2.2 1.9 -1.5 3 0.9 1.4 3.4 0 2.8 -1.6z m109.2 -22.3 c3.3 -1.9 24.8 -22.8 62.7 -60.8 56 -56.2 57.7 -58 59.4 -63.5 1.5 -4.9 1.6 -6.3 0.5 -10 -4.2 -13.9 -18.9 -21.7 -30.6 -16.3 -2.5 1.2 -12.7 10.5 -26.6 24.2 -12.4 12.3 -23.3 22.3 -24.2 22.3 -0.9 0 -1.7 -0.8 -1.7 -1.7 0 -2 0 -2 -6.4 6.1 -2.4 3.1 -2.7 3.9 -1.5 4.7 1.1 0.7 0.8 1.5 -1.9 4.1 -2.9 2.9 -3.4 3.1 -4.3 1.6 -0.5 -0.9 -1.6 -1.5 -2.4 -1.2 -1.1 0.5 -1.2 1.1 -0.3 3 1.1 2.4 0.4 3.3 -13.8 17.5 -13.5 13.6 -15.2 14.9 -18.4 14.9 -3.3 0 -5.2 -1.7 -27 -23.6 -23.7 -23.7 -28.8 -27.9 -36 -29.5 -9.6 -2.2 -21.6 6.4 -25.1 17.9 -1.1 3.7 -1 5 0.5 10 1.7 5.5 3.3 7.2 37.5 41.5 22.5 22.7 37.4 36.9 40.6 38.8 6.7 3.9 12.3 3.9 19 0z m23.5 -94.5 c0 -0.8 -0.4 -1.7 -0.8 -2 -1.3 -0.8 -3.5 1.1 -2.8 2.3 1 1.6 3.6 1.4 3.6 -0.3z m-2.4 -4.7 c0.3 -0.6 0.2 -1.5 -0.2 -1.9 -1.2 -1.2 -3.8 0.5 -3 1.9 0.9 1.4 2.3 1.4 3.2 0z m-2.3 -6.5 c-0.3 -0.8 -0.9 -1.4 -1.3 -1.4 -1.3 0 -2.2 1.9 -1.5 3 0.9 1.4 3.4 0 2.8 -1.6z m-113.7 -11.4 c1.2 -3 2.5 -6.4 2.8 -7.4 0.4 -1.6 0.7 -1.7 2 -0.6 1.4 1.1 1.6 0.4 1.6 -6.5 0 -4.3 -0.2 -7.6 -0.4 -7.4 -2.4 2.4 -8.6 10.5 -8.6 11.1 0 0.5 0.6 0.8 1.4 0.8 1.2 0 1 1.1 -0.7 6 -1.2 3.3 -2.5 6 -2.8 6 -0.3 0 -1.3 -1.8 -2.2 -4 -1.1 -2.8 -2 -3.8 -3 -3.4 -1.2 0.4 -1.1 1.4 0.7 6 1.8 4.7 2.4 5.4 4.5 5.2 2 -0.2 3 -1.5 4.7 -5.8z m-9.6 -9.4 c0 -0.8 -0.4 -1.7 -0.8 -2 -1.3 -0.8 -3.5 1.1 -2.8 2.3 1 1.6 3.6 1.4 3.6 -0.3z m-2.4 -4.7 c0.3 -0.6 0.2 -1.5 -0.2 -1.9 -1.2 -1.2 -3.8 0.5 -3 1.9 0.9 1.4 2.3 1.4 3.2 0z m-2.3 -6.5 c-0.3 -0.8 -0.9 -1.4 -1.3 -1.4 -1.3 0 -2.2 1.9 -1.5 3 0.9 1.4 3.4 0 2.8 -1.6z m260.7 -84.8 c0 -0.8 -0.4 -1.7 -0.8 -2 -1.3 -0.8 -3.5 1.1 -2.8 2.3 1 1.6 3.6 1.4 3.6 -0.3z m-2.4 -4.7 c0.3 -0.6 0.2 -1.5 -0.2 -1.9 -1.2 -1.2 -3.8 0.5 -3 1.9 0.9 1.4 2.3 1.4 3.2 0z m-2.3 -6.5 c-0.3 -0.8 -0.9 -1.4 -1.3 -1.4 -1.3 0 -2.2 1.9 -1.5 3 0.9 1.4 3.4 0 2.8 -1.6z"/>
  <path d="M5.4 489.9 c-0.8 -1.4 1.8 -3.1 3 -1.9 0.9 0.9 0 3 -1.4 3 -0.5 0 -1.2 -0.5 -1.6 -1.1z"/>
  <path d="M3.5 485 c-0.7 -1.1 0.2 -3 1.5 -3 0.4 0 1 0.6 1.3 1.4 0.6 1.6 -1.9 3 -2.8 1.6z"/>
 </g>
 <g fill="#fffcee">
  <path d="M228.3 339.1 c-6.8 -1.8 -13.1 -7.3 -47.4 -41.8 -33 -33.1 -35.8 -36.2 -37.4 -41.1 -4.2 -13.1 1 -26.1 12.9 -32.5 5.9 -3.1 17.3 -3 23.6 0.2 2.9 1.5 13.5 11.2 29.3 26.9 l24.7 24.7 15.9 -15.9 15.8 -15.8 1.9 5.1 c1.6 4.5 2.1 5.2 4.3 4.9 2 -0.2 2.9 -1.4 4.7 -5.8 1.2 -3 2.5 -6.4 2.8 -7.4 0.4 -1.6 0.7 -1.7 2 -0.6 1.4 1.1 1.6 0.4 1.6 -6.2 l0 -7.4 22.8 -22.5 c13.4 -13.3 24.3 -23.3 26.7 -24.4 2.9 -1.4 6.1 -2 11.5 -2 6.3 0.1 8.3 0.5 12.7 2.9 11.2 6.2 16 19.2 11.7 32.2 -1.5 4.4 -7.1 10.4 -59.7 63.1 -38.4 38.5 -59.6 59 -62.6 60.7 -5.1 2.7 -12.9 3.9 -17.8 2.7z"/>
  <path d="M269.6 245.8 l-1.6 -4.3 4 -3.7 c2.2 -2.1 3.5 -3.3 3 -2.6 -1.4 1.7 -1.2 2.8 0.4 2.8 1.2 0 1 1.1 -0.7 6 -1.2 3.3 -2.5 6 -2.8 6 -0.3 0 -1.3 -1.9 -2.3 -4.2z"/>
 </g>
</svg>